<svg xmlns="http://www.w3.org/2000/svg" viewBox="0 0 1492 1492" width="1492" height="1492" preserveAspectRatio="xMidYMid meet" style="width: 100%; height: 100%;"><defs><clipPath id="animationMask_kA426hDldn"><rect width="1492" height="1492" x="0" y="0"></rect></clipPath><clipPath id="cp_F2jAW7xZ"><path d="M0,0 L750,0 L750,1334 L0,1334z"></path></clipPath></defs><g clip-path="url(#animationMask_kA426hDldn)"><g style="user-select: none; display: block;" transform="matrix(2.46,0,0,2.46,795.2342,1092.7383)" opacity="0"><g opacity="1" transform="matrix(1,0,0,1,-24.133,-137.492)"><path style="display: block;" fill="rgb(115,0,255)" fill-opacity="0.01" d="M0 0 M0,-284.9765 C157.27853034999998,-284.9765 284.9765,-157.27853034999998 284.9765,0 C284.9765,157.27853034999998 157.27853034999998,284.9765 0,284.9765 C-157.27853034999998,284.9765 -284.9765,157.27853034999998 -284.9765,0 C-284.9765,-157.27853034999998 -157.27853034999998,-284.9765 0,-284.9765z"></path><path stroke-linecap="butt" stroke-linejoin="miter" fill-opacity="0" stroke-miterlimit="4" style="display: block;" stroke="rgb(23,211,155)" stroke-opacity="1" stroke-width="10" d="M0 0 M0,-284.9765 C157.27853034999998,-284.9765 284.9765,-157.27853034999998 284.9765,0 C284.9765,157.27853034999998 157.27853034999998,284.9765 0,284.9765 C-157.27853034999998,284.9765 -284.9765,157.27853034999998 -284.9765,0 C-284.9765,-157.27853034999998 -157.27853034999998,-284.9765 0,-284.9765z"></path></g></g><g clip-path="url(#cp_F2jAW7xZ)" transform="matrix(1.62,0,0,1.62,128.5,-184.54)" opacity="1"><g transform="matrix(15.705,0,0,15.705,1513.6125,-219.295)" opacity="1" style="user-select: none;"><path stroke-linecap="round" stroke-linejoin="round" fill-opacity="0" stroke="rgb(23,211,155)" stroke-opacity="1" stroke-width="1" d="M0 0 M-60.599,49.469 C-60.534,49.97 -60.5,50.481 -60.5,51 C-60.5,57.627 -65.873,63 -72.5,63 C-79.127,63 -84.5,57.627 -84.5,51 C-84.5,44.373 -79.127,39 -72.5,39 C-68.799,39 -65.49199999999999,40.677 -63.291,43.311 C-63.291,43.311 -73.588,53.609 -73.588,53.609 C-73.979,54 -74.612,54 -75.003,53.609 C-75.003,53.609 -78.5,50.479 -78.5,50.479"></path></g></g></g></svg>