<svg id="Layer_1" data-name="Layer 1" xmlns="http://www.w3.org/2000/svg" viewBox="0 0 299.4611 42.81255"><title>tt-logo-black-horizontal</title><path fill="#009933" d="M71.02478,15.93337V28.17266h-2.4434V15.93337H64.19032V13.69672H75.4135v2.23665Z" transform="translate(0.0001 0)"/><path fill="#009933" d="M89.00017,13.69672v2.29891H81.27528v3.8319H88.2131v2.17439H81.27528v3.87184H89.2492v2.2989H78.83189V13.69672Z" transform="translate(0.0001 0)"/><path fill="#009933" d="M104.52982,18.3979q0,3.584-3.12707,4.51441l3.7896,5.26035h-3.10593l-3.45834-4.86682h-3.2093v4.86682H92.9754V13.69672h5.38487q3.31269,0,4.74113,1.11832A4.26839,4.26839,0,0,1,104.52982,18.3979Zm-3.25159,2.04987a2.57751,2.57751,0,0,0,.74711-2.06044,2.20652,2.20652,0,0,0-.76591-1.94649,5.11668,5.11668,0,0,0-2.73472-.52744H95.41879v5.17694h3.04485A4.46586,4.46586,0,0,0,101.27823,20.44777Z" transform="translate(0.0001 0)"/><path fill="#009933" d="M120.35315,18.3979q0,3.584-3.12708,4.51441l3.78961,5.26035h-3.10593l-3.45834-4.86682h-3.21165v4.86682h-2.44339V13.69672h5.38487q3.31268,0,4.74347,1.11832A4.27509,4.27509,0,0,1,120.35315,18.3979Zm-3.25159,2.04987a2.58461,2.58461,0,0,0,.74477-2.06044,2.20652,2.20652,0,0,0-.76591-1.94649,5.10139,5.10139,0,0,0-2.73238-.52744h-3.10828v5.17694h3.04485a4.4739,4.4739,0,0,0,2.81694-.64257Z" transform="translate(0.0001 0)"/><path fill="#009933" d="M131.49409,13.69672l6.37868,14.47594h-2.69243l-1.47073-3.29271h-6.93784l-1.40727,3.29271h-2.6102L129.133,13.69672Zm1.24284,8.92544-2.48569-5.57047-2.46454,5.57047Z" transform="translate(0.0001 0)"/><path fill="#009933" d="M150.33878,14.96071a4.78718,4.78718,0,0,1,1.51068,3.893,4.61862,4.61862,0,0,1-1.54121,3.85187,7.56822,7.56822,0,0,1-4.73409,1.2217h-2.56792v4.2454h-2.44339v-14.476h4.97137A7.4406,7.4406,0,0,1,150.33878,14.96071Zm-1.72919,5.97455a3.20118,3.20118,0,0,0,.73537-2.27776,2.3623,2.3623,0,0,0-.93272-2.1227,5.36515,5.36515,0,0,0-2.92033-.62142h-2.48569v5.79838h2.8381A3.78678,3.78678,0,0,0,148.60959,20.93526Z" transform="translate(0.0001 0)"/><path fill="#009933" d="M155.05875,13.69672h2.44339V28.17266h-2.44339Z" transform="translate(0.0001 0)"/><path fill="#009933" d="M172.912,24.50757V13.69672h2.44339V28.17266h-2.6525L164.5034,17.61085V28.17266H162.06V13.69672h2.44339Z" transform="translate(0.0001 0)"/><path fill="#009933" d="M189.87007,15.93337V28.17266h-2.44339V15.93337H183.038V13.69672h11.22317v2.23665Z" transform="translate(0.0001 0)"/><path fill="#009933" d="M197.67719,13.69672h2.44339V28.17266h-2.44339Z" transform="translate(0.0001 0)"/><path fill="#009933" d="M210.93259,25.95716a5.10425,5.10425,0,0,0,2.1732-.42524,7.46174,7.46174,0,0,0,1.9054-1.35566l1.57411,1.61522a7.24346,7.24346,0,0,1-5.57986,2.54677,7.48162,7.48162,0,0,1-5.4483-2.11213,7.54336,7.54336,0,0,1,5.61276-12.88068A7.28219,7.28219,0,0,1,216.79205,15.83l-1.553,1.69863a6.76791,6.76791,0,0,0-1.95706-1.38733,5.45728,5.45728,0,0,0-2.1638-.39353,5.14138,5.14138,0,0,0-3.68623,1.41787,4.78367,4.78367,0,0,0-1.48953,3.624,5.00334,5.00334,0,0,0,1.48013,3.68624A4.793,4.793,0,0,0,210.93259,25.95716Z" transform="translate(0.0001 0)"/><path fill="#009933" d="M219.69122,13.69672h2.44339v7.06235l6.62772-7.06235h3.10593l-5.8195,6.33754,5.90175,8.1384h-2.8992l-4.80222-6.3364L222.1346,24.114v4.05864h-2.44339Z" transform="translate(0.0001 0)"/><path fill="#009933" d="M245.01794,13.69672v2.29891h-7.72488v3.8319h6.93784v2.17439h-6.93784v3.87184H245.267v2.2989h-10.4173V13.69672Z" transform="translate(0.0001 0)"/><path fill="#009933" d="M254.68814,15.93337V28.17266h-2.44339V15.93337H247.856V13.69672h11.22317v2.23665Z" transform="translate(0.0001 0)"/><path fill="#009933" d="M262.49527,13.69672h2.44339V28.17266h-2.44339Z" transform="translate(0.0001 0)"/><path fill="#009933" d="M280.34851,24.50757V13.69672h2.44339V28.17266h-2.6525l-8.19946-10.56181V28.17266h-2.44345V13.69672h2.44339Z" transform="translate(0.0001 0)"/><path fill="#009933" d="M297.01761,21.13145H299.461v4.949a7.50561,7.50561,0,0,1-5.85944,2.25779,7.39142,7.39142,0,0,1-5.37546-2.11213,7.67623,7.67623,0,0,1,.0423-10.72744,7.35389,7.35389,0,0,1,5.33319-2.15324,7.57836,7.57836,0,0,1,5.1969,1.822l-1.304,1.86429a5.05263,5.05263,0,0,0-1.708-1.00438,6.46585,6.46585,0,0,0-1.99936-.27958,5.12734,5.12734,0,1,0-.21616,10.25051,6.26473,6.26473,0,0,0,3.44659-.89043Z" transform="translate(0.0001 0)"/><path fill="#009933" d="M59.175,32.39326,45.03959,8.9521c-.0136-.0227-.03017-.043-.045-.06469-.01912-.02834-.03707-.05708-.05826-.08394a1.39987,1.39987,0,0,0-.13516-.14662c-.02948-.02815-.06092-.05353-.093-.07914-.02869-.02287-.05846-.044-.08882-.06455-.02652-.01807-.04978-.04012-.07768-.05644L34.15566,2.3884,30.407.19361A1.41369,1.41369,0,0,0,29.69287,0l-.00394.00025L29.685,0a1.41369,1.41369,0,0,0-.71413.19361L25.2222,2.3884,14.8362,8.45672c-.0279.01632-.05116.03837-.07768.05644-.03036.02053-.06013.04168-.08882.06455-.032.02561-.06349.051-.093.07914a1.40025,1.40025,0,0,0-.13516.14662c-.0212.02686-.03914.0556-.05826.08394-.01479.02174-.03135.042-.045.06469L.20309,32.39326a1.41362,1.41362,0,0,0,.4808,1.94048l.01526.00907,14.13542,8.27612a1.41409,1.41409,0,0,0,1.42707.00079L29.689,34.77435,43.1165,42.61969a1.41409,1.41409,0,0,0,1.42707-.00079L58.679,34.34278a1.41362,1.41362,0,0,0,.50513-1.93429l-.00907-.01526ZM17.50455,10.1825l9.15281-5.35882L29.689,3.05237l3.03168,1.77131,9.15271,5.35882L29.689,30.38734ZM15.5495,39.762,3.36282,32.62687l12.1841-20.20526L27.739,32.64008Zm28.27912,0L31.63909,32.64008,43.83117,12.4216l12.1841,20.20526Z" transform="translate(0.0001 0)"/><polygon fill="#009933" points="15.549 17.69 23.042 30.116 15.549 34.494 8.059 30.109 15.549 17.69"/><polygon fill="#009933" points="43.825 17.69 51.319 30.116 43.825 34.494 36.336 30.109 43.825 17.69"/><polygon fill="#009933" points="29.691 25.122 22.198 12.696 29.691 8.318 37.18 12.702 29.691 25.122"/></svg>
